<svg xmlns="http://www.w3.org/2000/svg" width="119" height="20" fill="none" viewBox="0 0 119 20"><path fill="#FCFDFD" fill-rule="evenodd" d="M19.874 13.338c.362 4.752 4.45 5.304 4.45 5.304v.173h-5.22v-5.489q-.932 2.855-3.974 4.502Q12.04 19.5 7.861 19.5q-2.951-.002-4.968-1.3Q.874 16.895.874 14.26q0-4.89 7.34-4.89h10.817c-.56-4.386-3.337-6.578-8.322-6.578q-6.5 0-8.462 4.327l-.316-.282q.984-3.13 3.354-4.733Q7.65.5 10.953.5q4.283 0 6.603 2.516 2.32 2.518 2.318 7.338zm-.74-.083v-.02l-.007.02zm-3.192 2.288q-3.194 1.674-8.006 1.672l-.004.004q-1.51-.001-2.739-.283a4.9 4.9 0 0 1-2.195-1.144q-.964-.862-.965-2.2-.002-3.59 6.144-3.589h10.926q.032.352.034 1.056 0 2.813-3.195 4.484M39.183.5q2.286.002 5.168.774V6.98h-.282q-.001-2.29-1.742-3.47t-4.274-1.18q-5.448 0-7.876 6.095v5.212q.388 4.264 4.43 5.001v.177h-9.598v-.177q4.465-.81 4.464-5.812V7.191q0-5-4.464-5.812v-.177h5.168v5.604h.105q1.196-3.312 3.325-4.81Q35.734.5 39.18.5zm29.636.692v11.617q0 5 4.46 5.809v.177h-5.163v-5.598h-.211q-2.739 6.302-9.24 6.303-4.289.002-6.5-2.5-2.213-2.5-2.213-7.36V7.178q0-2.605-1.316-4.03c-.877-.95-2.08-1.543-3.6-1.778v-.177h5.657v7.743q0 8.273 7.975 8.272 6.71.002 9.451-5.669v-5.14c-.14-1.48-.64-2.627-1.492-3.452q-1.285-1.232-3.39-1.584v-.177h5.586zm5.145 16.057q3.696 2.252 9.292 2.251 4.858.002 7.796-1.529 2.939-1.527 2.94-4.24 0-.983-.423-1.688a3.4 3.4 0 0 0-1.127-1.144q-.703-.438-2.04-.739a27 27 0 0 0-2.712-.456q-1.373-.157-3.59-.334-4.929-.353-6.846-1.038-1.916-.686-1.917-2.306-.001-3.59 8.096-3.589 7.248 0 9.536 3.201h.178V2.4Q89.413.5 83.783.5 79.17.499 76.656 1.8q-2.519 1.304-2.517 3.872 0 1.586 1.144 2.517 1.144.934 3.15 1.338 2.008.405 5.563.616 4.962.317 6.863 1.001c1.267.456 1.9 1.274 1.9 2.445q.001 3.978-8.903 3.977-7.215 0-9.714-3.2h-.177zm44.162 1.393s-4.086-.552-4.45-5.3v-2.988q.001-4.82-2.318-7.338Q109.038.5 104.755.5q-3.303 0-5.668 1.604-2.37 1.602-3.354 4.733l.316.282q1.962-4.326 8.462-4.327c4.985 0 7.762 2.192 8.322 6.578h-10.817q-7.34 0-7.34 4.89 0 2.636 2.019 3.94 2.017 1.298 4.968 1.3 4.18 0 7.269-1.672 3.04-1.647 3.973-4.5v5.487h5.221zm-5.191-5.407v.02h-.006zm-11.197 3.98q4.81.002 8.006-1.672 3.196-1.67 3.195-4.484c0-.47-.014-.82-.034-1.056h-10.926q-6.145 0-6.144 3.59.001 1.336.965 2.199a4.9 4.9 0 0 0 2.195 1.144q1.23.282 2.739.283z" clip-rule="evenodd"/></svg>