<?xml version="1.0" encoding="UTF-8"?>
<svg version="1.0" xmlns="http://www.w3.org/2000/svg" width="231px" height="140px">
<path fill="none" stroke="#231F20" d="
M2.75,85.333c0,0,22.5-15.5,43.25-23s33.75,12.75-3,42.75s-4.75-11,10-19.75 s29.5,10.75,13.25,28.25s-37.25,21.5-7.25-5.5s24.5-20.75,24.5-20.75s-16,14.5-12,22.75s24.5-4.5,9-26.25s-10-24-1.25-19 s12.75,45.5,12.75,47.5s6.25-43.5,11.75-22.25s7,21,4-4.25c0,0-2.75-25.25-2.75-28.5s-2.75,18.5,5.5,37s7.75,16,8,2.25 s8.25-5.25,12,12
M35,62.833c0,0,23.75,69.5,22.5,74.75
M141,99.583c0,0-1,0,0.75,12.75s0.75,26.25-14.5,10.5s-12.25-48-4.5-57.5 s14.75,0.25,16.75,12.75s17.75,64.75-5,26.25s-25.75-45.25-51.5-42.5c0,0,70.75-24.5,105.25-28.25
M166.75,82.083c0,0-35.25,6.5-44.75,6.5s-17.25,0.5-3.5-6.25
M161.75,2.333c0,0-8.5,16-5.5,44.25s12.75,60.75,19.25,52.25
M188,53.083c0,0-2.25,18.5-0.25,24.75s7.75,8.25-3.25-16.75s-18.5-5.25-16.75,9.5 c1.73,14.584,20.08,49.208,24.842-15.5c0.055-0.737,0.107-1.487,0.158-2.25c0,0-3.75,17.5,0.25,26.25s11.25,1.5,15-23 c0,0-4,9.25-1.5,16.25s11.75,2,21-24.25c0,0-4.75,42.75-0.5,67"/>
</svg>